<?xml version="1.0" standalone="no"?>
<!DOCTYPE svg PUBLIC "-//W3C//DTD SVG 20010904//EN"
 "http://www.w3.org/TR/2001/REC-SVG-20010904/DTD/svg10.dtd">
<svg version="1.0" xmlns="http://www.w3.org/2000/svg"
 width="300.000000pt" height="79.000000pt" viewBox="0 0 300.000000 79.000000"
 preserveAspectRatio="xMidYMid meet">
<metadata>
Created by potrace 1.10, written by Peter Selinger 2001-2011
</metadata>
<g transform="translate(0.000000,79.000000) scale(0.100000,-0.100000)"
fill="#000000" stroke="none">
<path d="M5 395 c0 -220 1 -309 2 -197 2 112 2 292 0 400 -1 108 -2 17 -2
-203z"/>
<path d="M840 709 c-113 -10 -243 -37 -268 -55 -13 -10 -15 -17 -6 -31 14 -23
126 -114 133 -108 3 3 -6 13 -20 22 -29 21 -69 63 -69 74 0 15 43 20 177 20
91 0 158 -6 196 -16 51 -13 61 -13 86 -1 30 16 59 46 44 46 -5 0 -16 -9 -26
-20 -20 -24 -28 -24 -93 -6 -27 8 -83 17 -124 21 -156 14 -154 14 -115 26 45
13 367 9 431 -6 55 -13 104 -47 104 -72 0 -7 -11 -18 -25 -23 -14 -5 -28 -18
-31 -27 -4 -10 -17 -27 -29 -38 -22 -19 -24 -30 -29 -160 -3 -77 -6 -142 -6
-144 0 -2 -8 3 -17 11 -29 24 -123 78 -123 70 0 -4 31 -26 69 -50 60 -36 70
-47 73 -74 2 -21 9 -32 21 -34 23 -3 22 11 -4 47 -26 37 -13 37 39 0 49 -36
55 -46 39 -59 -21 -17 -99 -27 -95 -12 2 7 -30 20 -89 35 -114 30 -213 68
-275 107 l-46 29 -51 -25 c-51 -27 -77 -57 -67 -81 6 -18 -60 15 -92 45 -24
23 -29 67 -9 93 13 17 402 220 474 248 30 11 31 33 1 23 -64 -19 -479 -237
-497 -260 -41 -52 -17 -115 57 -153 89 -45 371 -91 559 -91 106 0 143 9 143
35 0 12 19 15 100 15 l100 0 0 30 0 30 -120 0 -120 0 0 85 0 85 103 0 102 0 0
25 0 25 -102 0 -103 0 0 63 c0 90 10 97 137 97 l101 0 0 25 c0 25 -1 25 -93
25 -83 0 -93 2 -98 19 -6 25 -47 51 -97 62 -59 13 -241 17 -350 8z m-140 -49
c0 -5 -8 -10 -17 -10 -15 0 -16 2 -3 10 19 12 20 12 20 0z m530 -275 c0 -8 -4
-17 -10 -20 -6 -4 -10 5 -10 20 0 15 4 24 10 20 6 -3 10 -12 10 -20z m-460
-135 c0 -11 159 -90 182 -90 8 0 18 -3 22 -7 3 -4 14 -8 24 -9 128 -19 94 -33
-53 -23 -140 9 -262 31 -282 51 -8 8 -11 22 -7 32 12 31 114 73 114 46z m343
-147 c-7 -2 -19 -2 -25 0 -7 3 -2 5 12 5 14 0 19 -2 13 -5z"/>
<path d="M1620 608 c-118 -60 -96 -195 38 -243 129 -45 162 -74 148 -129 -15
-61 -146 -76 -193 -22 -13 15 -23 33 -23 40 0 13 -55 28 -64 19 -8 -8 13 -66
31 -85 49 -54 163 -75 238 -44 64 27 93 112 60 176 -18 35 -61 61 -146 89 -77
25 -102 48 -102 93 0 91 162 103 194 14 11 -30 18 -36 42 -36 27 0 29 2 23 30
-8 44 -35 77 -82 100 -53 26 -109 25 -164 -2z"/>
<path d="M2475 621 c-65 -16 -116 -66 -136 -132 -16 -58 -13 -199 6 -246 56
-140 237 -160 322 -35 62 93 51 284 -20 360 -42 45 -113 67 -172 53z m110 -73
c41 -32 57 -80 56 -174 -1 -134 -40 -194 -126 -194 -86 0 -125 60 -125 193 0
94 26 162 70 184 39 20 94 16 125 -9z"/>
<path d="M1910 595 c0 -25 1 -25 81 -25 l81 0 -4 -220 -3 -220 33 0 32 0 0
220 0 220 75 0 c73 0 75 1 75 25 l0 25 -185 0 -185 0 0 -25z m200 -15 c0 -5
-4 -10 -9 -10 -6 0 -13 5 -16 10 -3 6 1 10 9 10 9 0 16 -4 16 -10z"/>
<path d="M970 417 c-213 -112 -216 -114 -208 -122 9 -9 390 186 396 203 2 6 0
12 -5 11 -4 0 -87 -42 -183 -92z"/>
</g>
</svg>
